# xmcd
#
# Track frame offsets:
# 150
# 15997
# 29627
# 43444
# 57871
# 74537
# 92169
# 106792
# 122157
# 135755
# 150671
# 166569
# 180161
# 194636
#
# Disc length: 2798 seconds
#
#
# Revision: 1
# Processed by: cddbd v1.5.2PL0 Copyright (c) Steve Scherf et al.
# Submitted via: FreeRIP 2.951 
#
DISCID=b10aec0e
DTITLE=Musical JM - Busão do JM
DYEAR=2006
DGENRE=Other
TTITLE0=Primeiro baile
TTITLE1=Foi rapidinho, mas foi bom
TTITLE2=Pare de chorar agora
TTITLE3=Busão do JM
TTITLE4=Mulher especial
TTITLE5=Remédio ou veneno
TTITLE6=Juras de amor
TTITLE7=Acorrentados
TTITLE8=Xarope é quem não bebe
TTITLE9=O cantor e a fã
TTITLE10=Amigo ela te ama
TTITLE11=Ela é fogo
TTITLE12=Eu não queria te falar
TTITLE13=Louco de amor
EXTD=
EXTT0=
EXTT1=
EXTT2=
EXTT3=
EXTT4=
EXTT5=
EXTT6=
EXTT7=
EXTT8=
EXTT9=
EXTT10=
EXTT11=
EXTT12=
EXTT13=
PLAYORDER=
